<svg width="86" height="86" viewBox="0 0 86 86" fill="none" xmlns="http://www.w3.org/2000/svg">
<rect width="85.3333" height="85.3333" rx="42.6667" fill="#FF5252" fill-opacity="0.1"/>
<path d="M42.6667 56C43.4222 56 44.0556 55.7444 44.5667 55.2333C45.0778 54.7222 45.3333 54.0889 45.3333 53.3333C45.3333 52.5778 45.0778 51.9444 44.5667 51.4333C44.0556 50.9222 43.4222 50.6667 42.6667 50.6667C41.9111 50.6667 41.2778 50.9222 40.7667 51.4333C40.2556 51.9444 40 52.5778 40 53.3333C40 54.0889 40.2556 54.7222 40.7667 55.2333C41.2778 55.7444 41.9111 56 42.6667 56V56M40 45.3333H45.3333V29.3333H40V45.3333V45.3333M42.6667 69.3333C38.9778 69.3333 35.5111 68.6333 32.2667 67.2333C29.0222 65.8333 26.2 63.9333 23.8 61.5333C21.4 59.1333 19.5 56.3111 18.1 53.0667C16.7 49.8222 16 46.3556 16 42.6667C16 38.9778 16.7 35.5111 18.1 32.2667C19.5 29.0222 21.4 26.2 23.8 23.8C26.2 21.4 29.0222 19.5 32.2667 18.1C35.5111 16.7 38.9778 16 42.6667 16C46.3556 16 49.8222 16.7 53.0667 18.1C56.3111 19.5 59.1333 21.4 61.5333 23.8C63.9333 26.2 65.8333 29.0222 67.2333 32.2667C68.6333 35.5111 69.3333 38.9778 69.3333 42.6667C69.3333 46.3556 68.6333 49.8222 67.2333 53.0667C65.8333 56.3111 63.9333 59.1333 61.5333 61.5333C59.1333 63.9333 56.3111 65.8333 53.0667 67.2333C49.8222 68.6333 46.3556 69.3333 42.6667 69.3333V69.3333M42.6667 64C48.6222 64 53.6667 61.9333 57.8 57.8C61.9333 53.6667 64 48.6222 64 42.6667C64 36.7111 61.9333 31.6667 57.8 27.5333C53.6667 23.4 48.6222 21.3333 42.6667 21.3333C36.7111 21.3333 31.6667 23.4 27.5333 27.5333C23.4 31.6667 21.3333 36.7111 21.3333 42.6667C21.3333 48.6222 23.4 53.6667 27.5333 57.8C31.6667 61.9333 36.7111 64 42.6667 64V64M42.6667 42.6667V42.6667V42.6667V42.6667V42.6667V42.6667V42.6667V42.6667V42.6667V42.6667" fill="#FF5252"/>
</svg>
